<?xml version="1.0" encoding="UTF-8" standalone="no"?>
<!DOCTYPE svg PUBLIC "-//W3C//DTD SVG 1.1//EN" "http://www.w3.org/Graphics/SVG/1.1/DTD/svg11.dtd">
<svg version="1.1" xmlns="http://www.w3.org/2000/svg" xmlns:xlink="http://www.w3.org/1999/xlink" preserveAspectRatio="xMidYMid meet" viewBox="0 0 640 640" width="320" height="320"><defs><path d="M570 320C570 457.98 457.98 570 320 570C182.02 570 70 457.98 70 320C70 182.02 182.02 70 320 70C457.98 70 570 182.02 570 320Z" id="d1nzn8AhTO"></path><path d="M223.51 145L263.51 145L263.51 495L223.51 495L223.51 145Z" id="a1hwP0iUZW"></path><path d="M263.51 145L423.51 145L423.51 185L263.51 185L263.51 145Z" id="adgcZjBw8"></path><path d="M263.51 300L423.51 300L423.51 340L263.51 340L263.51 300Z" id="bsEVos8Q"></path><path d="M308.51 140L218.51 230L218.51 140L308.51 140Z" id="a40vjZwY2"></path><path d="M378.51 345L428.51 295L428.51 345L378.51 345Z" id="a8PxkiOTm"></path><path d="M313.51 290L263.51 340L263.51 290L313.51 290Z" id="a1ISHB4nu0"></path><path d="M378.51 190L428.51 140L428.51 190L378.51 190Z" id="f7BapNCwvD"></path><path d="M218.51 498.22L268.51 448.22L268.51 498.22L218.51 498.22Z" id="a15KdDQfc"></path></defs><g><g><g><use xlink:href="#d1nzn8AhTO" opacity="1" fill="#5755d9" fill-opacity="1"></use></g><g><use xlink:href="#a1hwP0iUZW" opacity="1" fill="#ffffff" fill-opacity="1"></use></g><g><use xlink:href="#adgcZjBw8" opacity="1" fill="#ffffff" fill-opacity="1"></use></g><g><use xlink:href="#bsEVos8Q" opacity="1" fill="#ffffff" fill-opacity="1"></use></g><g><use xlink:href="#a40vjZwY2" opacity="1" fill="#5755d9" fill-opacity="1"></use></g><g><use xlink:href="#a8PxkiOTm" opacity="1" fill="#5755d9" fill-opacity="1"></use></g><g><use xlink:href="#a1ISHB4nu0" opacity="1" fill="#5755d9" fill-opacity="1"></use></g><g><use xlink:href="#f7BapNCwvD" opacity="1" fill="#5755d9" fill-opacity="1"></use></g><g><use xlink:href="#a15KdDQfc" opacity="1" fill="#5755d9" fill-opacity="1"></use></g></g></g></svg>